<?xml version="1.0" standalone="no"?>
<!DOCTYPE svg PUBLIC "-//W3C//DTD SVG 20010904//EN"
 "http://www.w3.org/TR/2001/REC-SVG-20010904/DTD/svg10.dtd">
<svg version="1.0" xmlns="http://www.w3.org/2000/svg"
 width="300.000000pt" height="268.000000pt" viewBox="0 0 300.000000 268.000000"
 preserveAspectRatio="xMidYMid meet">
<metadata>
Created by potrace 1.10, written by Peter Selinger 2001-2011
</metadata>
<g transform="translate(0.000000,268.000000) scale(0.100000,-0.100000)"
fill="#000000" stroke="none">
<path d="M1409 2607 c-37 -23 -452 -339 -975 -744 -166 -128 -304 -240 -308
-248 -19 -51 18 -105 73 -105 l26 0 0 -628 0 -627 25 -45 c28 -49 73 -84 129
-100 23 -6 422 -10 1112 -10 1187 0 1144 -2 1206 62 65 67 63 44 63 728 l0
620 29 0 c71 0 108 84 59 130 -40 38 -1130 872 -1239 948 -52 36 -67 42 -112
42 -36 0 -63 -7 -88 -23z m142 -15 c25 -10 151 -102 204 -149 7 -7 18 -13 24
-13 6 0 11 -4 11 -9 0 -4 19 -21 43 -37 23 -16 45 -33 48 -37 3 -5 22 -18 41
-30 20 -12 51 -34 69 -50 19 -15 61 -47 94 -72 33 -24 67 -50 75 -58 8 -7 31
-24 50 -38 19 -13 44 -31 55 -41 11 -9 56 -44 100 -77 44 -33 91 -69 105 -80
14 -11 34 -27 45 -35 11 -9 54 -41 95 -73 41 -32 102 -78 136 -103 80 -58 98
-83 86 -118 -6 -19 -17 -28 -34 -30 -14 -2 -34 -12 -44 -24 -18 -19 -19 -48
-20 -519 0 -274 -3 -502 -7 -505 -4 -4 -3 -12 0 -18 11 -18 12 -148 1 -204 -5
-29 -16 -56 -24 -59 -8 -3 -14 -11 -14 -17 0 -7 -23 -25 -50 -40 l-51 -28
-824 -1 c-454 -1 -825 0 -825 3 0 3 -47 5 -105 5 -58 0 -105 -2 -105 -5 0 -3
-31 -3 -69 0 -38 3 -83 2 -100 -1 -18 -4 -31 -2 -31 3 0 7 -5 6 -13 -1 -8 -6
-16 -8 -19 -5 -3 3 -33 7 -67 9 -41 2 -69 9 -82 21 -10 9 -19 13 -19 8 0 -15
-52 49 -66 82 -11 26 -13 151 -13 633 0 662 2 645 -61 666 -54 18 -52 46 7
100 26 25 53 45 60 45 7 0 16 6 20 13 9 13 56 53 93 77 13 8 37 27 54 41 17
14 63 50 101 79 39 30 79 62 89 72 11 10 23 18 27 18 4 0 28 17 52 38 24 20
57 46 73 57 16 11 39 30 52 43 13 12 27 22 32 22 5 0 15 6 22 13 47 44 102 86
109 81 5 -3 9 -1 9 4 0 5 30 31 66 58 36 27 97 74 134 104 38 30 93 72 122 93
29 20 66 49 81 62 15 14 27 23 27 20 0 -3 10 1 23 10 23 16 61 15 108 -3z"/>
<path d="M1398 2473 c-36 -27 -99 -73 -139 -103 -40 -30 -77 -54 -81 -52 -5 1
-7 -2 -3 -8 3 -5 0 -10 -8 -10 -8 0 -17 -7 -21 -15 -3 -8 -10 -15 -15 -15 -9
0 -39 -23 -80 -60 -9 -9 -33 -26 -54 -39 -20 -12 -37 -27 -37 -32 0 -5 -6 -9
-14 -9 -8 0 -16 -3 -18 -8 -4 -10 -93 -82 -101 -82 -4 0 -21 -14 -40 -31 -18
-16 -42 -35 -54 -42 -27 -16 -135 -97 -148 -111 -5 -6 -54 -44 -108 -85 -54
-40 -107 -82 -118 -94 -14 -15 -19 -17 -20 -6 0 8 -5 3 -11 -11 -6 -16 -10
-260 -11 -695 -1 -542 1 -677 12 -703 24 -59 40 -62 344 -63 152 -1 280 2 286
6 6 3 11 3 11 -2 0 -7 268 -8 985 -3 50 0 210 0 358 0 370 -1 361 -7 356 245
0 24 -1 426 0 440 2 68 2 310 1 507 l-1 247 -32 33 c-18 19 -68 60 -112 93
-44 33 -85 64 -91 70 -7 5 -24 19 -40 30 -15 11 -33 26 -41 33 -7 7 -13 11
-13 8 0 -3 -9 2 -19 12 -31 28 -50 42 -55 42 -3 0 -17 11 -32 24 -47 42 -64
56 -69 56 -5 0 -39 26 -67 53 -10 9 -21 17 -24 17 -7 0 -75 51 -94 71 -8 8
-28 24 -45 34 -31 20 -105 77 -139 108 -11 9 -23 17 -28 17 -4 0 -20 12 -36
28 -15 15 -41 36 -56 47 -16 11 -43 30 -60 43 -109 79 -127 80 -218 15z m280
-95 c88 -68 251 -193 363 -278 112 -85 264 -202 339 -259 74 -57 163 -124 197
-150 l62 -46 1 -688 c0 -674 0 -687 -20 -707 -20 -20 -33 -20 -1129 -20
l-1110 0 -20 26 c-21 26 -21 34 -21 703 l0 677 68 50 c37 28 292 223 567 433
309 236 508 381 521 381 13 0 89 -51 182 -122z"/>
<path d="M1466 2144 c-21 -20 -20 -32 5 -74 32 -52 29 -96 -11 -160 -29 -47
-34 -64 -34 -115 0 -68 23 -121 57 -134 49 -19 72 26 42 79 -22 39 -18 72 20
143 27 50 35 78 35 117 0 57 -27 120 -62 144 -28 20 -33 20 -52 0z m66 -55
c10 -14 20 -47 22 -77 3 -46 -1 -63 -31 -118 -37 -70 -44 -126 -23 -161 8 -11
10 -29 6 -39 -7 -18 -9 -17 -26 6 -11 14 -18 31 -15 38 3 7 1 11 -4 8 -5 -3
-11 11 -13 31 -3 28 4 55 35 115 40 80 40 78 25 176 -1 6 -5 12 -10 12 -4 0
-8 9 -8 21 0 26 18 21 42 -12z"/>
<path d="M1259 2064 c-10 -13 -10 -21 0 -47 26 -62 25 -91 -8 -152 -36 -66
-39 -115 -13 -164 24 -45 54 -56 84 -31 l23 19 -23 40 c-25 44 -24 46 29 141
32 59 22 134 -25 188 -23 26 -48 28 -67 6z m64 -48 c29 -43 19 -135 -18 -177
-22 -23 -26 -89 -9 -114 18 -25 18 -35 1 -35 -49 0 -61 108 -19 174 25 40 40
142 19 129 -6 -4 -8 0 -4 10 3 10 2 17 -4 17 -6 0 -7 5 -4 10 10 16 22 12 38
-14z"/>
<path d="M1690 1975 c-9 -11 -9 -22 -1 -45 11 -33 5 -56 -28 -105 -49 -71 5
-199 69 -165 24 13 26 42 4 75 -16 24 -15 27 12 68 35 53 40 133 10 166 -22
25 -49 27 -66 6z m58 -78 c0 -18 -11 -56 -25 -86 -19 -42 -22 -60 -15 -81 14
-39 -1 -59 -22 -29 -19 27 -23 104 -4 93 6 -4 8 -3 4 4 -3 6 3 26 14 46 17 27
20 44 15 78 -7 42 -6 42 13 24 13 -11 20 -30 20 -49z"/>
<path d="M2217 1566 c-51 -19 -74 -41 -105 -101 -24 -45 -26 -61 -27 -155 0
-124 15 -162 93 -231 l49 -44 -13 -292 c-7 -160 -9 -304 -5 -319 11 -42 51
-67 84 -55 50 19 51 35 41 364 l-10 302 47 45 c64 62 91 119 97 206 12 190
-113 330 -251 280z m124 -38 c52 -37 61 -48 79 -99 34 -92 24 -217 -22 -275
-7 -9 -29 -34 -50 -56 -33 -35 -62 -91 -52 -100 6 -6 19 -388 17 -491 -3 -112
-20 -140 -62 -98 -18 18 -20 32 -16 148 3 123 16 442 17 453 3 15 -24 60 -43
73 -36 26 -99 127 -100 161 -2 89 1 139 10 150 6 7 8 15 5 18 -8 9 31 80 54
99 49 41 118 48 163 17z"/>
<path d="M502 1548 c-8 -8 -12 -60 -12 -167 0 -184 10 -214 94 -301 l54 -55
-8 -180 c-12 -253 -12 -423 0 -445 27 -51 94 -48 116 5 11 27 11 84 2 330
l-11 297 51 51 c82 85 86 99 90 279 4 175 -2 201 -46 196 l-27 -3 -2 -130 c-3
-162 -6 -175 -38 -175 -13 0 -27 6 -32 13 -4 6 -10 75 -13 152 l-5 140 -30 0
-30 0 -5 -140 c-3 -77 -9 -146 -13 -152 -12 -18 -54 -16 -61 3 -3 9 -6 73 -6
143 0 129 -6 151 -40 151 -9 0 -21 -5 -28 -12z m35 -153 c-1 -63 1 -115 4
-115 4 0 9 -8 12 -19 2 -10 18 -23 34 -29 26 -8 34 -7 58 12 25 20 28 30 29
82 1 32 6 62 11 66 6 5 5 8 -4 8 -10 0 -11 3 -2 14 7 8 8 16 4 19 -12 8 -10
70 3 74 7 2 10 -34 9 -109 -1 -122 8 -152 52 -169 53 -20 82 27 81 132 -1 110
1 131 11 125 5 -3 8 -68 7 -143 -1 -153 -9 -176 -84 -252 -54 -53 -51 -24 -37
-461 7 -191 6 -196 -15 -220 -14 -17 -23 -21 -26 -12 -3 6 -10 10 -14 7 -23
-14 -30 40 -25 177 4 79 8 161 9 183 8 90 8 251 0 270 -4 11 -27 39 -51 63
-24 24 -43 50 -43 57 0 8 -8 18 -17 24 -16 8 -18 30 -21 176 -3 114 0 165 7
161 6 -4 9 -51 8 -121z"/>
<path d="M1349 1526 c-315 -91 -498 -401 -419 -710 29 -114 73 -190 160 -276
178 -178 426 -219 658 -109 94 45 200 149 251 248 93 180 96 365 6 546 -63
128 -180 233 -314 283 -81 30 -266 40 -342 18z m291 -30 c19 -8 37 -14 40 -13
12 2 119 -56 155 -86 52 -43 101 -95 117 -126 7 -14 16 -28 19 -31 11 -9 37
-74 54 -133 36 -131 21 -281 -42 -406 -46 -90 -94 -146 -170 -197 -32 -21 -61
-43 -64 -47 -3 -4 -16 -9 -27 -10 -12 -1 -22 -4 -22 -8 0 -18 -157 -44 -251
-41 -113 3 -274 79 -360 169 -41 43 -99 136 -99 158 0 8 -5 15 -11 15 -5 0 -8
4 -4 9 3 5 1 12 -4 15 -35 22 -41 266 -9 366 13 41 56 126 78 153 48 61 93
106 101 101 5 -3 9 1 9 9 0 15 154 97 182 97 9 0 20 5 23 10 4 6 10 8 15 5 4
-3 19 -1 32 4 34 13 197 4 238 -13z"/>
<path d="M1397 1378 c-125 -26 -252 -133 -300 -254 -15 -38 -27 -78 -27 -89 0
-12 -6 -27 -12 -34 -9 -10 -9 -12 -1 -7 8 5 10 -3 6 -26 -6 -41 11 -140 32
-179 8 -16 22 -43 31 -59 44 -84 180 -179 284 -198 70 -13 160 -6 222 18 32
12 60 21 63 20 3 0 18 11 33 25 15 14 30 25 34 25 10 0 61 57 90 100 81 120
89 307 19 444 -67 129 -224 226 -364 223 -40 0 -89 -5 -110 -9z m228 -35 c185
-65 301 -261 266 -452 -25 -136 -105 -242 -227 -302 -85 -42 -201 -52 -285
-24 -114 38 -203 116 -257 225 -24 50 -27 65 -27 165 0 104 2 114 32 175 93
188 308 280 498 213z"/>
<path d="M1384 1282 c-93 -33 -166 -100 -206 -189 -17 -37 -22 -68 -23 -133 0
-77 3 -92 33 -152 38 -77 92 -130 171 -166 81 -38 193 -37 273 1 74 36 134 95
166 165 23 49 27 70 27 152 0 85 -3 101 -30 154 -33 66 -93 123 -163 157 -65
31 -179 36 -248 11z m146 -14 c0 -4 6 -5 13 -2 25 9 121 -35 163 -75 62 -58
96 -139 97 -227 0 -102 -25 -165 -93 -234 -65 -65 -126 -90 -221 -90 -97 0
-206 56 -251 130 -49 79 -60 114 -59 186 0 84 20 141 69 203 30 36 92 85 112
86 3 1 21 6 40 12 55 19 130 25 130 11z"/>
</g>
</svg>
